<svg xmlns="http://www.w3.org/2000/svg" xmlns:xlink="http://www.w3.org/1999/xlink" width="60" zoomAndPan="magnify" viewBox="0 0 45 44.999999" height="60" preserveAspectRatio="xMidYMid meet" version="1.0"><path fill="#ffffff" d="M 31.472656 26.746094 C 32.027344 22.648438 37.34375 19.707031 33.988281 16.058594 C 33.988281 16.058594 35.664062 16.652344 35.59375 18.785156 C 35.59375 18.785156 37.917969 16.074219 36.207031 13.144531 C 37.042969 10.5625 37.246094 7.425781 35.105469 5.289062 C 35.105469 5.289062 36.589844 7.449219 35.910156 9.597656 C 35.910156 9.597656 35.804688 4.515625 29.34375 3.679688 C 29.34375 3.679688 32.539062 4.816406 33.550781 7.835938 C 33.550781 7.835938 33.625 6.757812 32.832031 5.539062 C 32.832031 5.539062 35.230469 7.414062 34.289062 11.0625 C 34.289062 11.0625 33.730469 7.898438 31.109375 6.4375 C 28.492188 4.964844 25.402344 4.390625 24.144531 2.261719 C 24.144531 2.261719 24.421875 4.0625 26.765625 5.214844 C 26.765625 5.214844 21.804688 4.390625 20.722656 0.0273438 C 20.722656 0.0273438 20.53125 3.433594 24.492188 5.078125 C 28.457031 6.714844 29.382812 8.0625 29.558594 9.335938 C 29.558594 9.335938 29.925781 8.183594 28.71875 6.730469 C 28.71875 6.730469 30.9375 8.476562 30.988281 11.425781 C 30.988281 11.425781 31.617188 9.246094 30.378906 7.605469 C 30.378906 7.605469 32.230469 9.019531 31.792969 11.535156 C 31.792969 11.535156 33.921875 11.914062 34.777344 12.824219 C 34.777344 12.824219 31.375 11.878906 28.839844 12.617188 C 28.839844 12.617188 30.074219 12.023438 31.40625 12.117188 C 31.40625 12.117188 28.125 11.316406 24.808594 14.523438 C 24.808594 14.523438 26.363281 11.824219 29.101562 11.488281 C 29.101562 11.488281 30.046875 7.808594 25.261719 6.0625 C 25.261719 6.0625 26.816406 6.964844 27.550781 8.347656 C 27.550781 8.347656 26.03125 6.425781 23.203125 5.378906 C 20.375 4.332031 20.09375 3.25 19.9375 2.777344 C 19.9375 2.777344 19.691406 5.289062 23.378906 6.792969 C 23.378906 6.792969 19.167969 6.320312 19.203125 1.921875 C 19.203125 1.921875 17.316406 8.03125 24.859375 9.152344 C 24.859375 9.152344 20.53125 9.359375 19.167969 6.984375 C 19.167969 6.984375 18.277344 10.007812 21.980469 11.4375 C 21.980469 11.4375 17.125 11.121094 16.882812 5.8125 C 16.882812 5.8125 16.445312 7.1875 16.722656 8.300781 C 16.722656 8.300781 14.855469 5.183594 18.453125 2.320312 C 18.453125 2.320312 13.460938 4.910156 15.554688 9.554688 C 15.554688 9.554688 13.601562 7.386719 15.066406 4.660156 C 15.066406 4.660156 14.089844 5.882812 14.089844 7.144531 C 14.089844 7.144531 13.546875 3.652344 17.804688 1.453125 C 17.804688 1.453125 10.890625 2.253906 11.136719 9.203125 C 11.136719 9.203125 11.398438 7.128906 12.464844 6.027344 C 12.464844 6.027344 10.105469 10.859375 16.324219 14.25 C 16.324219 14.25 9.09375 13.410156 10.945312 5.976562 C 10.945312 5.976562 7.519531 13.066406 15.617188 14.429688 L 15.617188 14.433594 C 15.617188 14.433594 14.503906 15.570312 14.535156 17.117188 C 14.535156 17.117188 14.980469 15.394531 16.46875 14.546875 C 16.820312 14.582031 17.1875 14.613281 17.578125 14.628906 C 17.578125 14.628906 14.769531 13.234375 13.808594 10.585938 C 13.808594 10.585938 16.128906 14.492188 20.707031 13.65625 C 20.707031 13.65625 17.773438 13.289062 15.957031 11.195312 C 15.957031 11.195312 20.511719 14.441406 25.347656 12.117188 C 25.347656 12.117188 24.09375 13.042969 23.515625 14.722656 C 23.515625 14.722656 24.546875 13.234375 25.574219 12.726562 C 25.574219 12.726562 24.265625 13.949219 23.949219 15.332031 C 23.949219 15.332031 27.601562 14.421875 30.550781 16.082031 C 30.550781 16.082031 27.914062 15.136719 25.699219 15.660156 C 25.699219 15.660156 26.496094 16.675781 27.019531 18.132812 L 21.023438 18.085938 C 21.023438 18.085938 17.6875 16.667969 15.699219 18.238281 C 14.820312 18.84375 13.859375 17.140625 12.871094 18.394531 C 12.515625 18.847656 12.128906 21.695312 14.753906 21.78125 C 14.753906 21.78125 14.476562 22.621094 14.144531 22.742188 C 14.144531 22.742188 15.488281 22.535156 15.382812 19.566406 C 15.382812 19.566406 15.804688 19.175781 15.890625 19.746094 C 16.667969 25.085938 21.5625 22.789062 21.222656 19.371094 L 27.347656 19.316406 C 27.585938 20.558594 27.515625 21.976562 26.675781 23.324219 C 26.675781 23.324219 27.757812 22.085938 27.792969 20.933594 C 27.792969 20.933594 28.910156 27.0625 23.359375 24.863281 C 23.359375 24.863281 24.003906 25.59375 25.140625 25.945312 C 25.140625 25.945312 23.339844 25.945312 22.660156 24.339844 C 22.660156 24.339844 22.765625 25.335938 23.253906 25.964844 C 23.742188 26.589844 23.585938 27.898438 22.171875 27.828125 C 22.171875 27.828125 24.160156 28.507812 24.300781 30.203125 C 24.300781 30.203125 23.960938 29.195312 22.886719 28.773438 C 22.886719 28.773438 24.652344 30.011719 23.882812 31.878906 C 23.882812 31.878906 24.125 29.609375 21.804688 28.722656 C 21.804688 28.722656 22.519531 29.316406 22.957031 30.03125 C 22.957031 30.03125 21.839844 28.40625 19.394531 28.371094 C 19.394531 28.371094 21.421875 29.035156 19.953125 31.757812 C 19.953125 31.757812 21.035156 30.441406 20.835938 29.316406 C 20.835938 29.316406 21.515625 31.71875 18.878906 32.710938 C 18.878906 32.710938 20.316406 31.113281 19.855469 29.742188 C 19.855469 29.742188 19.875 30.351562 19.71875 30.792969 C 19.71875 30.792969 19.972656 29.320312 18.964844 28.730469 C 18.964844 28.730469 20.214844 31.046875 16.644531 30.8125 C 16.644531 30.8125 18.15625 30.707031 18.625 29.882812 C 18.625 29.882812 17.351562 30.03125 16.628906 29.375 C 15.902344 28.722656 14.410156 28.980469 14.511719 30.253906 C 14.511719 30.253906 14.171875 29.289062 14.96875 28.84375 C 14.96875 28.84375 13.738281 27.960938 14.347656 26.941406 C 14.960938 25.921875 16.171875 26.285156 16.765625 26.863281 C 17.359375 27.4375 19.160156 28.46875 20.894531 27.300781 C 20.894531 27.300781 20.125 27.542969 19.28125 27.335938 C 19.28125 27.335938 22.710938 27.484375 22.117188 24.425781 C 22.117188 24.425781 21.8125 26.769531 18.863281 26.199219 C 18.863281 26.199219 20.242188 26.191406 20.902344 25.503906 C 20.902344 25.503906 19.183594 26.109375 17.769531 24.445312 C 17.769531 24.445312 17.945312 25.019531 18.285156 25.425781 C 18.285156 25.425781 17.332031 25.085938 17.195312 24.257812 C 17.195312 24.257812 17.160156 22.839844 15.761719 23.105469 C 15.761719 23.105469 16.644531 23.324219 16.433594 23.953125 C 16.433594 23.953125 15.394531 23.238281 14.679688 23.867188 C 14.679688 23.867188 14.90625 23.359375 15.167969 23.292969 C 15.167969 23.292969 14.757812 23.394531 14.363281 23.792969 C 13.949219 23.503906 13.988281 23.042969 13.988281 23.042969 C 13.605469 23.519531 14.09375 24.125 14.09375 24.125 C 13.964844 24.328125 13.851562 24.566406 13.769531 24.867188 C 13.769531 24.867188 14.066406 24.492188 14.226562 24.390625 C 14.226562 24.390625 14.296875 25.921875 12.53125 25.605469 C 12.53125 25.605469 12.921875 26.066406 13.609375 26.03125 C 13.609375 26.03125 12.664062 26.476562 12.125 25.6875 C 12.125 25.6875 12.277344 27.015625 13.847656 27.09375 C 13.847656 27.09375 14.242188 31.097656 11.8125 32.265625 C 11.8125 32.265625 13.140625 32.253906 13.742188 31.015625 C 13.742188 31.015625 13.46875 33.144531 11.796875 33.519531 C 11.796875 33.519531 12.574219 33.824219 13.417969 33.304688 C 13.417969 33.304688 11.5625 36.902344 16.414062 39.296875 C 16.414062 39.296875 14.019531 36.582031 15.488281 33.707031 C 15.488281 33.707031 14.003906 38.144531 19.101562 39.433594 C 19.101562 39.433594 20.570312 37.480469 19.15625 34.996094 C 19.15625 34.996094 21.074219 36.992188 19.78125 39.246094 C 19.78125 39.246094 24.445312 38.015625 25.214844 31.875 C 25.214844 31.875 25.214844 34.558594 24.480469 35.957031 C 24.480469 35.957031 29.261719 33.222656 28.339844 27.722656 C 28.339844 27.722656 29.054688 30.09375 28.617188 31.804688 C 28.617188 31.804688 30.449219 29.761719 29.4375 25.777344 C 28.425781 21.800781 28.949219 19.199219 29.804688 18.449219 C 29.804688 18.449219 28.984375 18.863281 28.652344 19.824219 C 29.144531 16.058594 34.355469 16.5 33.0625 20.269531 C 32.128906 22.988281 31.195312 23.414062 31.472656 26.746094 " fill-opacity="1" fill-rule="evenodd"/><path fill="#ffffff" d="M 31.996094 32.082031 C 31.996094 32.082031 32.277344 33.976562 23.972656 37.542969 C 23.972656 37.542969 22.945312 38.746094 22.660156 40.160156 L 21.394531 40.160156 L 22.46875 39.617188 C 22.46875 39.617188 22.636719 38.558594 23.332031 37.675781 C 23.441406 37.5625 23.550781 37.445312 23.65625 37.320312 C 23.851562 37.136719 24.074219 36.96875 24.328125 36.835938 C 25.878906 36.027344 32.164062 33.488281 31.574219 31.59375 C 31.574219 31.59375 32.316406 29.464844 33.753906 31.488281 L 34.597656 35.464844 L 35.816406 35.734375 C 35.816406 35.734375 34.304688 41.03125 30.125 44.875 C 30.125 44.875 34.097656 39.671875 34.613281 36.207031 C 34.613281 36.207031 32.867188 38.875 29.585938 40.902344 C 29.585938 40.902344 32.664062 38.207031 33.664062 36.257812 C 33.664062 36.257812 32.074219 38.078125 30.636719 38.667969 C 30.636719 38.667969 32.6875 36.875 33.609375 35.539062 C 33.609375 35.539062 31.816406 37.160156 30.742188 37.621094 C 30.742188 37.621094 32.203125 36.183594 32.613281 35.644531 C 32.613281 35.644531 31.363281 36.78125 30.257812 37.347656 C 30.257812 37.347656 31.964844 35.839844 32.824219 34.679688 C 32.824219 34.679688 30.9375 36.089844 29.515625 36.835938 C 29.515625 36.835938 31.234375 35.359375 32.003906 34.566406 C 32.003906 34.566406 30.09375 35.882812 28.808594 36.386719 C 28.808594 36.386719 32.105469 34.195312 33.183594 32.347656 C 33.183594 32.347656 33.300781 31.539062 32.59375 31.285156 C 31.882812 31.027344 31.996094 32.082031 31.996094 32.082031 Z M 20.945312 41.15625 L 23.136719 41.222656 C 23.136719 41.222656 26.277344 39.597656 28.070312 39.617188 C 28.070312 39.617188 26.125 39.363281 24.433594 40.132812 C 24.433594 40.132812 26.457031 38.507812 27.804688 38.183594 C 27.804688 38.183594 25.058594 38.683594 23.46875 40.121094 C 23.46875 40.121094 24.445312 37.359375 28.546875 37.296875 C 28.546875 37.296875 30.058594 42.078125 27.804688 45.027344 C 27.804688 45.027344 25.203125 43.933594 22.777344 41.847656 L 21.238281 41.953125 C 21.238281 41.953125 19.445312 44.3125 16.855469 44.414062 C 16.855469 44.414062 16 41.789062 16.15625 39.671875 C 16.164062 39.675781 18.496094 39.96875 19.679688 40.511719 C 19.679688 40.511719 18.804688 40.410156 18.425781 40.453125 C 18.425781 40.453125 20.402344 40.742188 20.945312 41.15625 " fill-opacity="1" fill-rule="evenodd"/></svg>